<svg width="20" height="24" viewBox="0 0 20 24" fill="none" xmlns="http://www.w3.org/2000/svg">
<path d="M13.57 20.7811C13.57 21.3265 11.9694 21.7685 9.99495 21.7685C8.02052 21.7685 6.41992 21.3265 6.41992 20.7811C6.41992 20.2358 8.02052 19.7937 9.99495 19.7937C11.9694 19.7937 13.57 20.2358 13.57 20.7811Z" fill="#A0D6ED"/>
<path fill-rule="evenodd" clip-rule="evenodd" d="M12.616 21.9666C11.9303 22.156 11.0037 22.2685 9.99463 22.2685C8.98558 22.2685 8.05898 22.156 7.37324 21.9666C7.03371 21.8728 6.73018 21.7541 6.50138 21.6047C6.38721 21.5301 6.27198 21.4354 6.18083 21.3123C6.0874 21.1862 6.00293 21.0064 6.00293 20.7811C6.00293 20.5558 6.0874 20.376 6.18083 20.2499C6.27198 20.1269 6.38721 20.0321 6.50138 19.9576C6.73018 19.8082 7.03371 19.6894 7.37324 19.5956C8.05898 19.4062 8.98558 19.2937 9.99463 19.2937C11.0037 19.2937 11.9303 19.4062 12.616 19.5956C12.9555 19.6894 13.2591 19.8082 13.4879 19.9576C13.6021 20.0321 13.7173 20.1269 13.8084 20.2499C13.9019 20.376 13.9863 20.5558 13.9863 20.7811C13.9863 21.0064 13.9019 21.1862 13.8084 21.3123C13.7173 21.4354 13.6021 21.5301 13.4879 21.6047C13.2591 21.7541 12.9555 21.8728 12.616 21.9666ZM9.99463 21.7685C11.9691 21.7685 13.5697 21.3265 13.5697 20.7811C13.5697 20.2358 11.9691 19.7937 9.99463 19.7937C8.02019 19.7937 6.4196 20.2358 6.4196 20.7811C6.4196 21.3265 8.02019 21.7685 9.99463 21.7685Z" fill="#377894"/>
<path d="M10.7869 20.6893C10.7869 21.0005 9.87337 21.2529 8.74647 21.2529C7.61958 21.2529 6.70605 21.0005 6.70605 20.6893C6.70605 20.378 7.61958 20.1257 8.74647 20.1257C9.87337 20.1257 10.7869 20.378 10.7869 20.6893Z" fill="#D7F3FF"/>
<path d="M9.67383 11.7695C9.67383 11.5538 9.81957 11.3789 9.99935 11.3789C10.1791 11.3789 10.3249 11.5538 10.3249 11.7695V20.1406C10.3249 20.3563 10.1791 20.5312 9.99935 20.5312C9.81957 20.5312 9.67383 20.3563 9.67383 20.1406V11.7695Z" fill="#A0D6ED"/>
<path fill-rule="evenodd" clip-rule="evenodd" d="M10.7422 11.7695V20.1406C10.7422 20.6324 10.4099 21.0312 10 21.0312C9.5901 21.0312 9.25781 20.6324 9.25781 20.1406V11.7695C9.25781 11.2777 9.5901 10.8789 10 10.8789C10.4099 10.8789 10.7422 11.2777 10.7422 11.7695ZM10 11.3789C9.82022 11.3789 9.67448 11.5538 9.67448 11.7695V20.1406C9.67448 20.3563 9.82022 20.5312 10 20.5312C10.1798 20.5312 10.3255 20.3563 10.3255 20.1406V11.7695C10.3255 11.5538 10.1798 11.3789 10 11.3789Z" fill="#649DB6"/>
<path fill-rule="evenodd" clip-rule="evenodd" d="M9.8431 14.7656C9.95816 14.7656 10.0514 14.8776 10.0514 15.0156V17.3594C10.0514 17.4974 9.95816 17.6094 9.8431 17.6094C9.72804 17.6094 9.63477 17.4974 9.63477 17.3594V15.0156C9.63477 14.8776 9.72804 14.7656 9.8431 14.7656Z" fill="#C8EFFF"/>
<path d="M6.40297 3.31226H13.5816L14.4727 9.61895C14.7552 10.9851 14.056 11.9829 12.9398 12.6807C11.9039 13.3284 11.1622 13.4538 9.99228 13.4538C8.82234 13.4538 8.08816 13.3108 7.04474 12.6807C6.2937 12.2272 5.22395 11.3288 5.51189 9.61895L6.40297 3.31226Z" fill="#BBE9FD"/>
<path fill-rule="evenodd" clip-rule="evenodd" d="M5.99189 3.22867C6.02586 2.98822 6.19945 2.81226 6.40269 2.81226H13.5813C13.7845 2.81226 13.9581 2.98822 13.9921 3.22867L14.8807 9.51756C15.0446 10.3309 14.9176 11.0585 14.5783 11.6758C14.2458 12.2805 13.7246 12.7537 13.1321 13.1241C12.0181 13.8206 11.2043 13.9538 9.992 13.9538C8.77436 13.9538 7.97242 13.8008 6.85716 13.1273C6.46099 12.8881 5.94223 12.5103 5.56125 11.9306C5.16853 11.333 4.93397 10.5364 5.10186 9.5279L5.99189 3.22867ZM5.51161 9.61895C5.22367 11.3288 6.29341 12.2272 7.04446 12.6807C8.08788 13.3108 8.82206 13.4538 9.992 13.4538C11.1619 13.4538 11.9036 13.3284 12.9395 12.6807C14.0557 11.9829 14.7549 10.9851 14.4724 9.61895L13.5813 3.31226H6.40269L5.51161 9.61895Z" fill="#6BB3D1"/>
<path d="M9.99228 13.454C11.1622 13.454 11.9039 13.3286 12.9398 12.6809C14.056 11.983 14.7552 10.9853 14.4727 9.61913L14.1691 7.47046H5.81548L5.51189 9.61914C5.22395 11.329 6.2937 12.2274 7.04474 12.6809C8.08816 13.311 8.82234 13.454 9.99228 13.454Z" fill="#99130C"/>
<path fill-rule="evenodd" clip-rule="evenodd" d="M14.1688 7.47046L14.4724 9.61913C14.7549 10.9853 14.0557 11.983 12.9395 12.6809C11.9036 13.3286 11.1619 13.454 9.992 13.454C8.82206 13.454 8.08788 13.311 7.04446 12.6809C6.29341 12.2274 5.22367 11.329 5.51161 9.61913L5.8152 7.47046H14.1688ZM5.10186 9.52808C4.93397 10.5366 5.16853 11.3332 5.56125 11.9308C5.94223 12.5105 6.46099 12.8883 6.85716 13.1275C7.97242 13.801 8.77436 13.954 9.992 13.954C11.2043 13.954 12.0181 13.8208 13.1321 13.1243C13.7246 12.7538 14.2458 12.2807 14.5783 11.676C14.9176 11.0587 15.0446 10.3311 14.8807 9.51774L14.5796 7.38688C14.5456 7.14642 14.372 6.97046 14.1688 6.97046H5.8152C5.61196 6.97046 5.43837 7.14642 5.4044 7.38688L5.10186 9.52808Z" fill="#5B0501"/>
<path d="M8.47586 11.3483C8.47586 12.239 7.84435 12.4454 7.14774 12.2233C6.45112 12.0012 5.84565 11.2389 5.77404 10.4264C5.70243 9.61388 5.93679 8.80139 6.63993 8.98894C7.34306 9.17648 8.47586 10.4576 8.47586 11.3483Z" fill="#780A04"/>
<path d="M13.57 3.21862C13.57 3.76396 11.9694 4.20604 9.99495 4.20604C8.02052 4.20604 6.41992 3.76396 6.41992 3.21862C6.41992 2.67328 8.02052 2.2312 9.99495 2.2312C11.9694 2.2312 13.57 2.67328 13.57 3.21862Z" fill="#D7F3FF"/>
<path fill-rule="evenodd" clip-rule="evenodd" d="M12.616 4.40409C11.9303 4.59349 11.0037 4.70604 9.99463 4.70604C8.98558 4.70604 8.05898 4.59349 7.37324 4.40409C7.03371 4.31032 6.73018 4.19156 6.50138 4.04215C6.38721 3.9676 6.27198 3.87286 6.18083 3.74984C6.0874 3.62373 6.00293 3.4439 6.00293 3.21862C6.00293 2.99334 6.0874 2.81351 6.18083 2.68741C6.27198 2.56439 6.38721 2.46964 6.50138 2.39509C6.73018 2.24568 7.03371 2.12693 7.37324 2.03315C8.05898 1.84375 8.98558 1.7312 9.99463 1.7312C11.0037 1.7312 11.9303 1.84375 12.616 2.03315C12.9555 2.12693 13.2591 2.24568 13.4879 2.39509C13.6021 2.46964 13.7173 2.56439 13.8084 2.68741C13.9019 2.81351 13.9863 2.99334 13.9863 3.21862C13.9863 3.4439 13.9019 3.62373 13.8084 3.74984C13.7173 3.87286 13.6021 3.9676 13.4879 4.04215C13.2591 4.19156 12.9555 4.31032 12.616 4.40409ZM9.99463 4.20604C11.9691 4.20604 13.5697 3.76396 13.5697 3.21862C13.5697 2.67328 11.9691 2.2312 9.99463 2.2312C8.02019 2.2312 6.4196 2.67328 6.4196 3.21862C6.4196 3.76396 8.02019 4.20604 9.99463 4.20604Z" fill="#6BB3D1"/>
<path fill-rule="evenodd" clip-rule="evenodd" d="M9.99905 2.69925C10.0008 2.5612 10.0955 2.45102 10.2106 2.45316C11.5816 2.47866 12.5027 2.88805 12.815 3.11405C12.9135 3.18537 12.9452 3.33902 12.8857 3.45725C12.8263 3.57548 12.6983 3.61351 12.5998 3.5422C12.3651 3.37237 11.5206 2.97759 10.2041 2.9531C10.0891 2.95095 9.99727 2.8373 9.99905 2.69925Z" fill="white"/>
<path d="M13.61 10.1414C13.61 10.4865 13.3768 10.7664 13.0892 10.7664C12.8015 10.7664 12.5684 10.4865 12.5684 10.1414C12.5684 9.79618 12.8015 9.51636 13.0892 9.51636C13.3768 9.51636 13.61 9.79618 13.61 10.1414Z" fill="#E3160C"/>
<path d="M12.8154 11.6179C12.8154 11.8639 12.6493 12.0632 12.4443 12.0632C12.2394 12.0632 12.0732 11.8639 12.0732 11.6179C12.0732 11.372 12.2394 11.1726 12.4443 11.1726C12.6493 11.1726 12.8154 11.372 12.8154 11.6179Z" fill="#E3160C"/>
<path d="M11.8063 11.4968C11.8063 11.6834 11.6803 11.8347 11.5247 11.8347C11.3692 11.8347 11.2432 11.6834 11.2432 11.4968C11.2432 11.3102 11.3692 11.1589 11.5247 11.1589C11.6803 11.1589 11.8063 11.3102 11.8063 11.4968Z" fill="#E3160C"/>
<path d="M12.8503 8.96167C12.8503 9.14828 12.7242 9.29956 12.5687 9.29956C12.4132 9.29956 12.2871 9.14828 12.2871 8.96167C12.2871 8.77506 12.4132 8.62378 12.5687 8.62378C12.7242 8.62378 12.8503 8.77506 12.8503 8.96167Z" fill="#E3160C"/>
<path d="M12.9984 7.86987C12.9984 7.98098 12.9233 8.07104 12.8307 8.07104C12.7381 8.07104 12.6631 7.98098 12.6631 7.86987C12.6631 7.75877 12.7381 7.6687 12.8307 7.6687C12.9233 7.6687 12.9984 7.75877 12.9984 7.86987Z" fill="#E3160C"/>
<path d="M13.7777 7.31519C13.7777 7.42629 13.7026 7.51636 13.61 7.51636C13.5174 7.51636 13.4424 7.42629 13.4424 7.31519C13.4424 7.20408 13.5174 7.11401 13.61 7.11401C13.7026 7.11401 13.7777 7.20408 13.7777 7.31519Z" fill="#E3160C"/>
<path d="M11.1478 12.116C11.1478 12.2271 11.0727 12.3171 10.9801 12.3171C10.8876 12.3171 10.8125 12.2271 10.8125 12.116C10.8125 12.0049 10.8876 11.9148 10.9801 11.9148C11.0727 11.9148 11.1478 12.0049 11.1478 12.116Z" fill="#E3160C"/>
<path d="M10.3353 12.7488C10.3353 12.8599 10.2602 12.95 10.1676 12.95C10.0751 12.95 10 12.8599 10 12.7488C10 12.6377 10.0751 12.5476 10.1676 12.5476C10.2602 12.5476 10.3353 12.6377 10.3353 12.7488Z" fill="#E3160C"/>
<path d="M11.2435 10.7664C11.2435 10.8775 11.1684 10.9675 11.0758 10.9675C10.9833 10.9675 10.9082 10.8775 10.9082 10.7664C10.9082 10.6553 10.9833 10.5652 11.0758 10.5652C11.1684 10.5652 11.2435 10.6553 11.2435 10.7664Z" fill="#E3160C"/>
<path d="M11.9495 9.01245C11.9495 9.12356 11.8745 9.21362 11.7819 9.21362C11.6893 9.21362 11.6143 9.12356 11.6143 9.01245C11.6143 8.90135 11.6893 8.81128 11.7819 8.81128C11.8745 8.81128 11.9495 8.90135 11.9495 9.01245Z" fill="#E3160C"/>
<path d="M12.1777 10.1414C12.1777 10.3873 12.0116 10.5867 11.8066 10.5867C11.6017 10.5867 11.4355 10.3873 11.4355 10.1414C11.4355 9.89542 11.6017 9.69604 11.8066 9.69604C12.0116 9.69604 12.1777 9.89542 12.1777 10.1414Z" fill="#E3160C"/>
<path d="M13.9814 8.51636C13.9814 8.7623 13.8153 8.96167 13.6104 8.96167C13.4054 8.96167 13.2393 8.7623 13.2393 8.51636C13.2393 8.27042 13.4054 8.07104 13.6104 8.07104C13.8153 8.07104 13.9814 8.27042 13.9814 8.51636Z" fill="#E3160C"/>
<path d="M14.2874 9.82495C14.2874 9.95224 14.2014 10.0554 14.0954 10.0554C13.9893 10.0554 13.9033 9.95224 13.9033 9.82495C13.9033 9.69767 13.9893 9.59448 14.0954 9.59448C14.2014 9.59448 14.2874 9.69767 14.2874 9.82495Z" fill="#E3160C"/>
<path d="M13.6097 11.2664C13.6097 11.3936 13.5237 11.4968 13.4176 11.4968C13.3116 11.4968 13.2256 11.3936 13.2256 11.2664C13.2256 11.1391 13.3116 11.0359 13.4176 11.0359C13.5237 11.0359 13.6097 11.1391 13.6097 11.2664Z" fill="#E3160C"/>
<path d="M11.807 12.5476C11.807 12.6749 11.721 12.7781 11.6149 12.7781C11.5088 12.7781 11.4229 12.6749 11.4229 12.5476C11.4229 12.4203 11.5088 12.3171 11.6149 12.3171C11.721 12.3171 11.807 12.4203 11.807 12.5476Z" fill="#E3160C"/>
<path d="M14.1667 7.49832C14.1667 8.13341 12.3026 8.64825 10.0033 8.64825C7.70387 8.64825 5.83984 8.13341 5.83984 7.49832C5.83984 6.86323 7.70387 6.34839 10.0033 6.34839C12.3026 6.34839 14.1667 6.86323 14.1667 7.49832Z" fill="#C12F28"/>
<path fill-rule="evenodd" clip-rule="evenodd" d="M13.0404 8.7987C12.2481 9.01751 11.1745 9.14825 10.0029 9.14825C8.8314 9.14825 7.75771 9.01751 6.96549 8.7987C6.57273 8.69022 6.22611 8.55396 5.96754 8.38511C5.83848 8.30083 5.71169 8.19588 5.61271 8.06229C5.51144 7.9256 5.42285 7.73482 5.42285 7.49832C5.42285 7.26182 5.51144 7.07104 5.61271 6.93435C5.71169 6.80075 5.83848 6.69581 5.96754 6.61153C6.22611 6.44268 6.57273 6.30642 6.96549 6.19794C7.75771 5.97913 8.8314 5.84839 10.0029 5.84839C11.1745 5.84839 12.2481 5.97913 13.0404 6.19794C13.4331 6.30642 13.7797 6.44268 14.0383 6.61153C14.1674 6.69581 14.2942 6.80075 14.3932 6.93435C14.4944 7.07104 14.583 7.26182 14.583 7.49832C14.583 7.73482 14.4944 7.9256 14.3932 8.06229C14.2942 8.19588 14.1674 8.30083 14.0383 8.38511C13.7797 8.55396 13.4331 8.69022 13.0404 8.7987ZM10.0029 8.64825C12.3023 8.64825 14.1663 8.13341 14.1663 7.49832C14.1663 6.86323 12.3023 6.34839 10.0029 6.34839C7.70354 6.34839 5.83952 6.86323 5.83952 7.49832C5.83952 8.13341 7.70354 8.64825 10.0029 8.64825Z" fill="#6C0905"/>
<path d="M10.9961 7.66865C10.9961 8.03511 9.92053 8.33218 8.59375 8.33218C7.26697 8.33218 6.19141 8.03511 6.19141 7.66865C6.19141 7.3022 7.26697 7.00513 8.59375 7.00513C9.92053 7.00513 10.9961 7.3022 10.9961 7.66865Z" fill="#A91A13"/>
<path fill-rule="evenodd" clip-rule="evenodd" d="M10.7809 6.88624C10.79 6.7486 10.8904 6.64588 11.0051 6.6568C11.6597 6.71914 12.7402 6.87685 13.3995 7.2065C13.5057 7.2596 13.5559 7.40597 13.5117 7.53342C13.4674 7.66087 13.3454 7.72114 13.2392 7.66804C12.6485 7.37269 11.6301 7.21789 10.9721 7.15524C10.8574 7.14431 10.7718 7.02388 10.7809 6.88624Z" fill="#F93F35"/>
<path fill-rule="evenodd" clip-rule="evenodd" d="M6.34692 9.0527C6.4592 9.08284 6.52986 9.21649 6.50475 9.35122L6.50453 9.35245L6.5037 9.35695L6.5004 9.37527C6.49751 9.39142 6.49335 9.41515 6.48832 9.44487C6.47827 9.50439 6.46485 9.58749 6.45146 9.68155C6.42405 9.87403 6.39909 10.0966 6.39909 10.2576C6.39908 10.5818 6.46469 10.8923 6.66936 11.1584C6.7474 11.2598 6.74213 11.418 6.65759 11.5116C6.57304 11.6053 6.44124 11.5989 6.36319 11.4975C6.06787 11.1136 5.98242 10.6678 5.98242 10.2576C5.98242 10.0514 6.01281 9.79353 6.04074 9.59734C6.05502 9.49707 6.06928 9.40878 6.07997 9.3455C6.08533 9.31381 6.08981 9.28829 6.09298 9.27053L6.0967 9.24991L6.09772 9.24433L6.09809 9.24233C6.09809 9.24231 6.09813 9.2421 6.30144 9.29667L6.09809 9.24233C6.12321 9.10759 6.23464 9.02256 6.34692 9.0527Z" fill="#E8291F"/>
<path fill-rule="evenodd" clip-rule="evenodd" d="M6.97576 4.61292C7.0891 4.63675 7.16488 4.76631 7.14502 4.90231L6.83252 7.04294C6.81267 7.17894 6.7047 7.26987 6.59136 7.24605C6.47803 7.22222 6.40225 7.09266 6.4221 6.95666L6.73461 4.81603C6.75446 4.68003 6.86243 4.5891 6.97576 4.61292Z" fill="white"/>
</svg>
